<svg width="40" height="40" viewBox="0 0 40 40" fill="none" xmlns="http://www.w3.org/2000/svg">
<path d="M17.586 29.9999C17.7757 30.0006 17.9632 29.9535 18.1346 29.8621C18.3061 29.7706 18.4571 29.6371 18.5766 29.4714L24.7111 20.9008C24.8979 20.6452 25 20.3246 25 19.9937C25 19.6628 24.8979 19.3422 24.7111 19.0866L18.3607 10.516C18.1451 10.2243 17.8354 10.0409 17.4995 10.006C17.1637 9.97122 16.8293 10.0879 16.5699 10.3303C16.3106 10.5728 16.1474 10.9212 16.1165 11.2989C16.0855 11.6766 16.1892 12.0527 16.4048 12.3444L22.082 20.0008L16.5953 27.6573C16.44 27.8669 16.3414 28.1223 16.311 28.393C16.2807 28.6638 16.32 28.9386 16.4242 29.1851C16.5284 29.4315 16.6932 29.6392 16.8991 29.7836C17.105 29.928 17.3434 30.0031 17.586 29.9999Z" fill="#FFB300"/>
<circle cx="20" cy="20" r="18.5" transform="matrix(-1 0 0 1 40 0)" stroke="#FFB300" stroke-width="3"/>
</svg>
